<svg viewBox="0 0 1000 120" xmlns="http://www.w3.org/2000/svg" font-family="Segoe UI, Verdana, sans-serif">
<defs>
  <linearGradient id="panel" x1="0" y1="0" x2="0" y2="1">
    <stop offset="0%" stop-color="#171c3d"/>
    <stop offset="100%" stop-color="#0e1130"/>
  </linearGradient>
  <linearGradient id="edge" x1="0" y1="0" x2="1" y2="0">
    <stop offset="0%" stop-color="#8ff0ff" stop-opacity="0.55"/>
    <stop offset="50%" stop-color="#b78bff" stop-opacity="0.35"/>
    <stop offset="100%" stop-color="#8ff0ff" stop-opacity="0"/>
  </linearGradient>
  <radialGradient id="iconGlow" cx="50%" cy="50%" r="50%">
    <stop offset="0%" stop-color="#8ff0ff" stop-opacity="0.5"/>
    <stop offset="100%" stop-color="#8ff0ff" stop-opacity="0"/>
  </radialGradient>
  <linearGradient id="cubeTop" x1="0" y1="0" x2="1" y2="1">
    <stop offset="0%" stop-color="#a9fbff"/>
    <stop offset="100%" stop-color="#7fd8f0"/>
  </linearGradient>
  <linearGradient id="cubeL" x1="0" y1="0" x2="0" y2="1">
    <stop offset="0%" stop-color="#5aa7d9"/>
    <stop offset="100%" stop-color="#3d7cae"/>
  </linearGradient>
  <linearGradient id="cubeR" x1="0" y1="0" x2="0" y2="1">
    <stop offset="0%" stop-color="#7a7dff"/>
    <stop offset="100%" stop-color="#5a5dd9"/>
  </linearGradient>
</defs>

<rect x="1" y="1" width="998" height="118" rx="16" fill="url(#panel)" stroke="#2c3468" stroke-width="1.5"/>
<rect x="1" y="116" width="998" height="3" fill="url(#edge)"/>
<g transform="translate(50,60.0)"><g><animateTransform attributeName="transform" type="translate" values="0,0;0,-4;0,0" dur="3s" repeatCount="indefinite"/><circle cx="0" cy="0" r="30" fill="url(#iconGlow)"/><ellipse cx="0" cy="0" rx="34" ry="13" fill="none" stroke="#8ff0ff" stroke-width="1.6" opacity="0.7"><animateTransform attributeName="transform" type="rotate" values="0;360" dur="7s" repeatCount="indefinite"/></ellipse><g transform="translate(-8,10)"><polygon points="0.0,-9.0 17.0,0.0 0.0,9.0 -17.0,0.0" fill="url(#cubeTop)"/><polygon points="17.0,9.0 0.0,18.0 0.0,9.0 17.0,0.0" fill="url(#cubeR)"/><polygon points="-17.0,9.0 0.0,18.0 0.0,9.0 -17.0,0.0" fill="url(#cubeL)"/></g></g></g>
<text x="130" y="69.0" font-size="30" font-weight="700" letter-spacing="6" fill="#eef3ff">ABOUT</text>
</svg>